<svg width="36" height="34" fill="none" xmlns="http://www.w3.org/2000/svg"><ellipse opacity=".2" cx="18" cy="16.905" rx="18" ry="16.857" fill="#444344"/><path fill-rule="evenodd" clip-rule="evenodd" d="M22.553 7.54c-1.447 0-2.38.161-3.45.652-.396.181-.768.4-1.113.655a6.38 6.38 0 00-1.068-.625c-1.09-.506-2.072-.682-3.468-.682C9.716 7.54 7 10.44 7 14.207c0 2.845 1.694 5.594 4.849 8.251 1.656 1.395 3.77 2.775 5.285 3.51l.866.42.866-.42c1.515-.735 3.63-2.115 5.285-3.51C27.306 19.801 29 17.053 29 14.208c0-3.728-2.742-6.654-6.447-6.668zM27 14.207c0 2.23-1.414 4.523-4.186 6.858-1.512 1.274-3.455 2.546-4.814 3.213-1.359-.667-3.302-1.94-4.814-3.212C10.414 18.73 9 16.436 9 14.207c0-2.784 1.884-4.795 4.454-4.795 1.11 0 1.794.123 2.581.487.465.216.876.5 1.232.855l.735.736.73-.741c.363-.37.78-.66 1.25-.876.764-.35 1.405-.461 2.567-.461 2.54.01 4.451 2.05 4.451 4.794z" fill="#fff"/></svg>