<svg width="127" height="82" fill="none" xmlns="http://www.w3.org/2000/svg"><path d="M49.95 67.13a13.641 13.641 0 01-5.187 3.846c-2.02.894-4.254 1.34-6.702 1.34-2.448 0-4.644-.31-6.587-.932-1.943-.583-3.885-1.593-5.828-3.03-1.943-1.4-4.158-3.4-6.645-6.004-3.42-.7-6.43-2.02-9.034-3.964-2.604-1.981-4.644-4.41-6.12-7.285C2.409 48.225 1.69 45.058 1.69 41.6c0-4.08.991-7.733 2.973-10.958 1.982-3.264 4.721-5.809 8.218-7.635 3.497-1.826 7.441-2.74 11.832-2.74 4.391 0 8.335.914 11.832 2.74s6.237 4.371 8.218 7.635c1.982 3.225 2.973 6.878 2.973 10.958 0 4.469-1.185 8.432-3.555 11.89-2.37 3.42-5.576 5.945-9.618 7.577.583.622 1.166 1.05 1.749 1.283a5.034 5.034 0 002.04.408c2.02 0 3.905-.875 5.654-2.623l5.945 6.994zM24.714 31.4c-1.71 0-3.264.427-4.663 1.282-1.36.816-2.448 2.001-3.264 3.556-.816 1.515-1.224 3.303-1.224 5.362 0 2.06.408 3.866 1.224 5.42.816 1.516 1.904 2.701 3.264 3.556 1.4.816 2.953 1.224 4.663 1.224 1.71 0 3.245-.408 4.605-1.224 1.399-.855 2.506-2.04 3.322-3.555.816-1.555 1.224-3.362 1.224-5.421 0-2.06-.408-3.847-1.224-5.362-.816-1.555-1.923-2.74-3.322-3.556-1.36-.855-2.895-1.282-4.605-1.282z" fill="#3C5ABC"/><rect x="58" y="31" width="68.028" height="28.43" rx="5.077" fill="#3C5ABC"/><path d="M76.164 39.91c1.26 0 2.383.274 3.37.823a5.922 5.922 0 012.35 2.328c.567 1.002.85 2.157.85 3.466 0 1.31-.283 2.473-.85 3.491a5.922 5.922 0 01-2.35 2.328c-.987.549-2.11.824-3.37.824-1.746 0-3.128-.582-4.146-1.746v6.279h-3.03V40.054h2.885v1.697a4.707 4.707 0 011.842-1.381c.744-.307 1.56-.46 2.449-.46zm-.34 10.666c1.115 0 2.029-.372 2.74-1.115.727-.744 1.09-1.722 1.09-2.934 0-1.212-.363-2.19-1.09-2.933-.711-.744-1.625-1.115-2.74-1.115-.727 0-1.382.17-1.963.509a3.508 3.508 0 00-1.382 1.406c-.34.614-.51 1.325-.51 2.133s.17 1.52.51 2.134c.34.614.8 1.09 1.382 1.43.581.323 1.236.485 1.963.485zm15.601 2.594c-1.309 0-2.489-.283-3.539-.849a6.297 6.297 0 01-2.473-2.351c-.582-1.018-.873-2.166-.873-3.443 0-1.276.291-2.416.873-3.418a6.297 6.297 0 012.473-2.351c1.05-.566 2.23-.849 3.54-.849 1.325 0 2.513.283 3.563.849a6.128 6.128 0 012.448 2.351c.599 1.002.898 2.142.898 3.418 0 1.277-.3 2.425-.897 3.443a6.128 6.128 0 01-2.449 2.351c-1.05.566-2.238.849-3.564.849zm0-2.594c1.115 0 2.037-.372 2.764-1.115.727-.744 1.09-1.722 1.09-2.934 0-1.212-.363-2.19-1.09-2.933-.727-.744-1.648-1.115-2.764-1.115-1.115 0-2.036.371-2.763 1.115-.711.743-1.067 1.721-1.067 2.933 0 1.212.356 2.19 1.067 2.934.727.743 1.648 1.115 2.763 1.115zm17.153-10.667c1.632 0 2.941.477 3.927 1.43.986.954 1.479 2.368 1.479 4.243V53h-3.031v-7.03c0-1.132-.266-1.98-.8-2.546-.533-.582-1.293-.873-2.278-.873-1.116 0-1.996.34-2.643 1.019-.646.662-.97 1.624-.97 2.885V53h-3.03V40.054h2.885v1.673a4.735 4.735 0 011.891-1.357c.76-.307 1.616-.46 2.57-.46z" fill="#fff"/></svg>