<svg width="18" height="18" fill="none" xmlns="http://www.w3.org/2000/svg"><path d="M11.5 6.5C11.5 5.083 10.417 4 9 4S6.5 5.083 6.5 6.5 7.583 9 9 9s2.5-1.083 2.5-2.5zm-3.333 0c0-.5.333-.833.833-.833.5 0 .833.333.833.833 0 .5-.333.833-.833.833-.5 0-.833-.333-.833-.833z" fill="#fff"/><path d="M8.083 14.25l.917.833.917-.833c3.25-2.917 4.916-5.417 4.916-7.75C14.833 3.167 12.25.667 9 .667S3.167 3.167 3.167 6.5c0 2.333 1.666 4.833 4.916 7.75zM9 2.333c2.333 0 4.167 1.75 4.167 4.167 0 1.667-1.334 3.833-4.167 6.333-2.833-2.5-4.167-4.666-4.167-6.333 0-2.417 1.834-4.167 4.167-4.167z" fill="#fff"/><path d="M14.25 11.333c-.333.5-.75.917-1.167 1.417 1.584.333 2.584.833 2.584 1.25 0 .667-3 1.667-6.667 1.667s-6.667-1-6.667-1.667c0-.417 1-.917 2.584-1.25-.417-.5-.834-1-1.167-1.417C1.833 11.917.667 12.833.667 14c0 2.083 3.75 3.333 8.333 3.333s8.333-1.25 8.333-3.333c0-1.167-1.166-2.083-3.083-2.667z" fill="#fff"/></svg>