<svg width="24" height="24" fill="none" xmlns="http://www.w3.org/2000/svg"><path d="M15.497 14.503a.703.703 0 00-.994.994l.994-.994zm5.006 6.994a.703.703 0 00.994-.994l-.994.994zM10 16.297A6.297 6.297 0 013.703 10H2.297A7.703 7.703 0 0010 17.703v-1.406zM16.297 10A6.297 6.297 0 0110 16.297v1.406A7.703 7.703 0 0017.703 10h-1.406zM10 3.703A6.297 6.297 0 0116.297 10h1.406A7.703 7.703 0 0010 2.297v1.406zm0-1.406A7.703 7.703 0 002.297 10h1.406A6.297 6.297 0 0110 3.703V2.297zm4.503 13.2l6 6 .994-.994-6-6-.994.994z" fill="#8D899B"/></svg>