<svg width="32" height="33" fill="none" xmlns="http://www.w3.org/2000/svg"><circle cx="16" cy="16.639" r="16" fill="#3C5ABC"/><path d="M24.331 20.794a1.139 1.139 0 00-.057-.106c-.293-.507-.85-1.13-1.675-1.868l-.018-.017-.008-.009-.009-.008h-.009c-.374-.344-.61-.575-.71-.693-.181-.225-.222-.454-.123-.685.07-.174.334-.544.79-1.107.24-.299.43-.538.57-.72 1.01-1.295 1.45-2.123 1.315-2.484l-.053-.085c-.035-.05-.126-.097-.272-.14a1.433 1.433 0 00-.56-.02l-2.526.017a.747.747 0 00-.29.03l-.044.02-.035.026a.561.561 0 00-.184.237 13.575 13.575 0 01-.938 1.902c-.216.35-.415.652-.596.909a4.344 4.344 0 01-.456.566 3.134 3.134 0 01-.333.291c-.1.074-.176.105-.228.093a4.167 4.167 0 01-.149-.034.567.567 0 01-.197-.207.905.905 0 01-.101-.33 3.348 3.348 0 01-.03-.342 6.58 6.58 0 01.003-.405c.006-.175.01-.293.01-.355 0-.214.004-.447.013-.698l.021-.596c.006-.146.01-.301.01-.465 0-.163-.011-.291-.032-.384a1.313 1.313 0 00-.092-.271.459.459 0 00-.18-.203 1.032 1.032 0 00-.293-.114 6.055 6.055 0 00-1.184-.11c-1.087-.01-1.786.057-2.096.203a1.178 1.178 0 00-.333.254c-.105.124-.12.192-.044.203.351.05.6.172.745.364l.053.1c.041.074.082.204.123.39.041.186.067.391.079.617.03.411.03.763 0 1.056-.03.294-.057.522-.083.685a1.334 1.334 0 01-.224.584.15.15 0 01-.044.042.682.682 0 01-.237.042c-.082 0-.18-.04-.298-.119a2.054 2.054 0 01-.364-.325 4.34 4.34 0 01-.425-.58 9.894 9.894 0 01-.491-.878l-.14-.245a20.615 20.615 0 01-.36-.69 12.98 12.98 0 01-.403-.874.563.563 0 00-.21-.271l-.045-.026a.97.97 0 00-.342-.127l-2.402.018c-.246 0-.412.053-.5.16l-.035.051a.265.265 0 00-.027.135.65.65 0 00.053.229c.351.794.732 1.56 1.144 2.299A25.6 25.6 0 009.85 17.51c.304.45.614.876.93 1.276.315.4.524.657.626.77.102.112.182.197.241.253l.22.203c.14.135.346.297.617.486.272.19.573.375.904.558.33.183.714.332 1.153.448.438.115.865.162 1.28.14h1.008c.205-.017.36-.08.465-.187l.035-.042a.561.561 0 00.066-.156c.02-.07.03-.148.03-.233a2.68 2.68 0 01.057-.655c.044-.194.094-.34.15-.44a1.078 1.078 0 01.337-.372.71.71 0 01.07-.03c.14-.044.306 0 .496.132.19.133.368.295.535.49.166.195.366.413.6.655.234.243.439.423.614.541l.176.102a2.2 2.2 0 00.456.186c.187.056.35.07.49.042l2.245-.034c.223 0 .395-.035.518-.105.122-.07.196-.148.219-.233a.63.63 0 00.004-.287 1.03 1.03 0 00-.061-.224z" fill="#fff"/></svg>