<svg width="19" height="21" viewBox="0 0 19 21" fill="none" xmlns="http://www.w3.org/2000/svg">
<path d="M16.5 20.9736H2.5C1.39543 20.9736 0.5 20.0782 0.5 18.9736V4.97363C0.5 3.86906 1.39543 2.97363 2.5 2.97363H4.5V0.973633H6.5V2.97363H12.5V0.973633H14.5V2.97363H16.5C17.6046 2.97363 18.5 3.86906 18.5 4.97363V18.9736C18.5 20.0782 17.6046 20.9736 16.5 20.9736ZM2.5 8.97363V18.9736H16.5V8.97363H2.5ZM2.5 4.97363V6.97363H16.5V4.97363H2.5ZM14.5 16.9736H12.5V14.9736H14.5V16.9736ZM10.5 16.9736H8.5V14.9736H10.5V16.9736ZM6.5 16.9736H4.5V14.9736H6.5V16.9736ZM14.5 12.9736H12.5V10.9736H14.5V12.9736ZM10.5 12.9736H8.5V10.9736H10.5V12.9736ZM6.5 12.9736H4.5V10.9736H6.5V12.9736Z" fill="#3C5ABC"/>
</svg>
