<svg width="14" height="19" viewBox="0 0 14 19" fill="none" xmlns="http://www.w3.org/2000/svg">
<path d="M7 19C5.73693 17.9226 4.56619 16.7415 3.5 15.469C1.9 13.558 8.83662e-07 10.712 8.83662e-07 8C-0.00141728 5.16755 1.70425 2.61339 4.32107 1.5294C6.93789 0.445405 9.95007 1.04524 11.952 3.049C13.2685 4.35961 14.0059 6.14239 14 8C14 10.712 12.1 13.558 10.5 15.469C9.43382 16.7415 8.26307 17.9226 7 19ZM7 5C5.92821 5 4.93782 5.5718 4.40193 6.5C3.86603 7.4282 3.86603 8.5718 4.40193 9.5C4.93782 10.4282 5.92821 11 7 11C8.65686 11 10 9.65685 10 8C10 6.34315 8.65686 5 7 5Z" fill="#3C5ABC"/>
</svg>
