<svg width="24" height="24" viewBox="0 0 24 24" fill="none" xmlns="http://www.w3.org/2000/svg">
<path fill-rule="evenodd" clip-rule="evenodd" d="M16.6501 5.99896C16.6452 6.46111 16.2678 6.83847 15.8057 6.84031L10.5534 6.86805L10.4398 6.86107C10.0314 6.80807 9.72067 6.46032 9.72524 6.03668C9.72774 5.8056 9.82234 5.59671 9.97408 5.44497C10.1274 5.29164 10.3371 5.19625 10.5697 5.19532L15.8212 5.1668L15.9346 5.17398C16.3425 5.22769 16.654 5.57605 16.6501 5.99896ZM18.6932 17.2785C18.9458 17.6047 18.9191 18.0796 18.6155 18.3832C18.2866 18.7121 17.7566 18.716 17.4325 18.3919L7.11193 8.07134L7.07235 15.568L7.06424 15.6816C7.00703 16.0904 6.65463 16.4079 6.231 16.4125C5.76964 16.4167 5.39701 16.0456 5.39963 15.5843L5.45022 6.06166L5.45793 5.9495C5.48329 5.76522 5.56998 5.59591 5.69907 5.46681C5.77614 5.38975 5.86807 5.32756 5.97091 5.28421C6.28496 5.15178 6.64405 5.2201 6.88202 5.45807L18.6242 17.2002L18.6932 17.2785Z" fill="#3C5ABC"/>
</svg>
