<svg width="54" height="54" viewBox="0 0 54 54" fill="none" xmlns="http://www.w3.org/2000/svg">
<g opacity="0.28" clip-path="url(#clip0_739_10526)">
<path fill-rule="evenodd" clip-rule="evenodd" d="M6.7451 3.37501L6.75 3.375H40.5L40.5049 3.37501C42.2922 3.3802 44.0048 4.09251 45.2687 5.35633C46.5325 6.62016 47.2448 8.33279 47.25 10.1201L47.25 10.125V11.8125H43.875V10.1279C43.8719 9.23301 43.515 8.37564 42.8822 7.74282C42.2494 7.11005 41.3921 6.75318 40.4973 6.75H6.75269C5.85788 6.75318 5.00059 7.11005 4.36782 7.74282C3.73505 8.37559 3.37818 9.23288 3.375 10.1277V37.1223C3.37818 38.0171 3.73505 38.8744 4.36782 39.5072C5.00064 40.14 5.85801 40.4969 6.75289 40.5H8.4375V43.875H6.75L6.7451 43.875C4.95779 43.8698 3.24516 43.1575 1.98133 41.8937C0.717505 40.6298 0.00519742 38.9172 7.14138e-06 37.1299L0 37.125V10.125L7.14138e-06 10.1201C0.00519742 8.33279 0.717506 6.62016 1.98133 5.35633C3.24516 4.09251 4.95779 3.3802 6.7451 3.37501Z" fill="#131032"/>
<path fill-rule="evenodd" clip-rule="evenodd" d="M14.9755 15.1875C13.2286 15.1875 11.8125 16.6036 11.8125 18.3505V44.087C11.8125 45.8339 13.2286 47.25 14.9755 47.25H47.462C49.2089 47.25 50.625 45.8339 50.625 44.087V18.3505C50.625 16.6036 49.2089 15.1875 47.462 15.1875H14.9755ZM8.4375 18.3505C8.4375 14.7397 11.3647 11.8125 14.9755 11.8125H47.462C51.0728 11.8125 54 14.7397 54 18.3505V44.087C54 47.6978 51.0728 50.625 47.462 50.625H14.9755C11.3647 50.625 8.4375 47.6978 8.4375 44.087V18.3505Z" fill="#131032"/>
<path fill-rule="evenodd" clip-rule="evenodd" d="M39.3312 21.6309C38.4594 21.6309 37.7734 22.3293 37.7734 23.1654C37.7734 24.0016 38.4594 24.7 39.3312 24.7C40.203 24.7 40.889 24.0016 40.889 23.1654C40.889 22.3293 40.203 21.6309 39.3312 21.6309ZM34.3984 23.1654C34.3984 20.4426 36.6184 18.2559 39.3312 18.2559C42.0441 18.2559 44.264 20.4426 44.264 23.1654C44.264 25.8883 42.0441 28.075 39.3312 28.075C36.6184 28.075 34.3984 25.8883 34.3984 23.1654Z" fill="#131032"/>
<path fill-rule="evenodd" clip-rule="evenodd" d="M21.3306 28.7468C22.2712 27.9185 23.491 27.4778 24.7437 27.5138C25.9965 27.5497 27.189 28.0595 28.0806 28.9404L37.2742 38.0538C37.936 38.7099 37.9407 39.7784 37.2846 40.4403C36.6285 41.1022 35.56 41.1068 34.8981 40.4507L25.7085 31.3412C25.7083 31.341 25.7081 31.3408 25.7079 31.3406C25.4244 31.0608 25.0452 30.8988 24.647 30.8874C24.2486 30.8759 23.8607 31.016 23.5615 31.2793C23.5614 31.2794 23.5613 31.2795 23.5611 31.2796L11.2415 42.1493C10.5426 42.7658 9.47623 42.6992 8.85963 42.0003C8.24304 41.3015 8.30972 40.2351 9.00857 39.6185L21.3306 28.7468Z" fill="#131032"/>
<path fill-rule="evenodd" clip-rule="evenodd" d="M43.7794 37.6255C43.4776 37.3779 43.0948 37.2506 42.7047 37.2682C42.3147 37.2858 41.9451 37.447 41.6667 37.7207C41.6662 37.7212 41.6657 37.7217 41.6651 37.7222L29.1616 50.1352C28.5001 50.7918 27.4317 50.7879 26.7751 50.1265C26.1185 49.4651 26.1224 48.3966 26.7838 47.74L39.2913 35.3232L39.2953 35.3192C40.1679 34.4587 41.3283 33.9519 42.5527 33.8966C43.777 33.8414 44.9784 34.2417 45.9249 35.0202L45.9287 35.0233L53.3874 41.1943C54.1055 41.7884 54.206 42.8521 53.6119 43.5702C53.0178 44.2883 51.9541 44.3888 51.236 43.7947L43.781 37.6268C43.7805 37.6264 43.7799 37.6259 43.7794 37.6255Z" fill="#131032"/>
</g>
<defs>
<clipPath id="clip0_739_10526">
<rect width="54" height="54" fill="white"/>
</clipPath>
</defs>
</svg>
