<svg width="24" height="22" viewBox="0 0 24 22" fill="none" xmlns="http://www.w3.org/2000/svg">
<path fill-rule="evenodd" clip-rule="evenodd" d="M2.70718 0.292908L1.29297 1.70712L5.35754 5.7717C4.97879 6.08558 4.60395 6.42267 4.23324 6.78116C3.40403 7.58306 2.65384 8.43917 1.99344 9.29564C1.59494 9.81246 1.31201 10.219 1.1571 10.4612L0.8125 11L1.1571 11.5388C1.31201 11.781 1.59494 12.1876 1.99344 12.7044C2.65384 13.5609 3.40403 14.417 4.23324 15.2189C6.66386 17.5694 9.27199 19 11.9995 19C13.7206 19 15.3941 18.4304 17.0054 17.4196L21.293 21.7071L22.7072 20.2929L2.70718 0.292908ZM15.5445 15.9587L14.032 14.4462C13.4365 14.7981 12.7418 15 12 15C9.79086 15 8 13.2091 8 11C8 10.2582 8.20194 9.56352 8.55384 8.968L6.77955 7.19371C6.39206 7.50618 6.00641 7.84864 5.62357 8.21886C4.86937 8.94822 4.18192 9.73273 3.57728 10.5169C3.44669 10.6862 3.32602 10.8478 3.2157 11C3.32602 11.1522 3.44669 11.3138 3.57728 11.4831C4.18192 12.2673 4.86937 13.0518 5.62357 13.7812C7.71703 15.8056 9.89446 17 11.9995 17C13.1678 17 14.3584 16.6321 15.5445 15.9587ZM10.0678 10.4819C10.0236 10.6472 10 10.8208 10 11C10 12.1046 10.8954 13 12 13C12.1792 13 12.3529 12.9764 12.5181 12.9322L10.0678 10.4819ZM20.0976 14.891L18.6834 13.4767C19.3175 12.8357 19.9004 12.1593 20.4218 11.4831C20.5524 11.3138 20.673 11.1522 20.7834 11C20.673 10.8478 20.5524 10.6862 20.4218 10.5169C19.8171 9.73273 19.1297 8.94822 18.3755 8.21886C16.282 6.19439 14.1046 5.00001 11.9995 5.00001C11.4772 5.00001 10.9505 5.07354 10.4217 5.21503L8.83968 3.63306C9.87213 3.22139 10.9266 3.00001 11.9995 3.00001C14.7271 3.00001 17.3352 4.43064 19.7658 6.78116C20.595 7.58306 21.3452 8.43917 22.0056 9.29564C22.4041 9.81246 22.6871 10.219 22.842 10.4612L23.1866 11L22.842 11.5388C22.6871 11.781 22.4041 12.1876 22.0056 12.7044C21.4345 13.4451 20.7961 14.1856 20.0976 14.891Z" fill="#8D899B"/>
</svg>
