<svg width="24" height="16" viewBox="0 0 24 16" fill="none" xmlns="http://www.w3.org/2000/svg">
<path fill-rule="evenodd" clip-rule="evenodd" d="M11.9995 0C14.7271 0 17.3352 1.43062 19.7658 3.78115C20.595 4.58305 21.3452 5.43916 22.0056 6.29562C22.4041 6.81244 22.6871 7.21899 22.842 7.4612L23.1866 8L22.842 8.5388C22.6871 8.781 22.4041 9.18756 22.0056 9.70438C21.3452 10.5608 20.595 11.417 19.7658 12.2189C17.3352 14.5694 14.7271 16 11.9995 16C9.27199 16 6.66386 14.5694 4.23324 12.2189C3.40403 11.417 2.65384 10.5608 1.99344 9.70438C1.59494 9.18756 1.31201 8.781 1.1571 8.5388L0.8125 8L1.1571 7.4612C1.31201 7.21899 1.59494 6.81244 1.99344 6.29562C2.65384 5.43916 3.40403 4.58305 4.23324 3.78115C6.66386 1.43062 9.27199 0 11.9995 0ZM20.4209 7.51688C19.8163 6.73272 19.1288 5.9482 18.3746 5.21885C16.2812 3.19438 14.1038 2 11.9987 2C9.8936 2 7.71617 3.19438 5.62272 5.21885C4.86852 5.9482 4.18107 6.73272 3.57643 7.51688C3.44584 7.68624 3.32517 7.84782 3.21484 8C3.32517 8.15218 3.44584 8.31376 3.57643 8.48312C4.18107 9.26728 4.86852 10.0518 5.62272 10.7811C7.71617 12.8056 9.8936 14 11.9987 14C14.1038 14 16.2812 12.8056 18.3746 10.7811C19.1288 10.0518 19.8163 9.26728 20.4209 8.48312C20.5515 8.31376 20.6722 8.15218 20.7825 8C20.6722 7.84782 20.5515 7.68624 20.4209 7.51688ZM8 8C8 10.2091 9.79086 12 12 12C14.2091 12 16 10.2091 16 8C16 5.79086 14.2091 4 12 4C9.79086 4 8 5.79086 8 8ZM14 8C14 9.10457 13.1046 10 12 10C10.8954 10 10 9.10457 10 8C10 6.89543 10.8954 6 12 6C13.1046 6 14 6.89543 14 8Z" fill="#8D899B"/>
</svg>
