<svg width="22" height="22" viewBox="0 0 22 22" fill="none" xmlns="http://www.w3.org/2000/svg">
<path fill-rule="evenodd" clip-rule="evenodd" d="M11.0066 0.916517L10.9984 0.916504L10.9882 0.916524C5.42401 0.922011 0.915039 5.43436 0.915039 10.9998C0.915039 16.5687 5.4295 21.0832 10.9984 21.0832C16.5672 21.0832 21.0817 16.5687 21.0817 10.9998C21.0817 5.43371 16.5717 0.920953 11.0066 0.916517ZM2.80837 9.99712C3.07485 10.3393 3.81831 10.7776 4.95665 11.135C5.40417 11.2756 5.89427 11.3991 6.42013 11.504C6.41674 11.3369 6.41504 11.1688 6.41504 10.9998C6.41504 7.94942 6.97017 5.19473 7.93178 3.33848C5.19071 4.43652 3.17601 6.96296 2.80837 9.99712ZM6.5334 13.393C5.06114 13.137 3.79883 12.7496 2.84233 12.2512C3.28712 15.1743 5.26593 17.5933 7.93181 18.6612C7.22968 17.3059 6.74426 15.4716 6.5334 13.393ZM8.41302 13.6374C9.23538 13.7115 10.1015 13.7498 10.9991 13.7498C11.8821 13.7498 12.7521 13.6998 13.5889 13.607C13.1754 16.9047 12.0321 19.2498 10.999 19.2498C9.96912 19.2498 8.8297 16.9191 8.41302 13.6374ZM13.7365 11.7373C12.8661 11.85 11.9414 11.9165 10.9991 11.9165C10.0419 11.9165 9.123 11.8691 8.26306 11.7792C8.2538 11.5228 8.24902 11.2629 8.24902 10.9998C8.24902 6.40182 9.70983 2.74983 10.999 2.74983C12.2882 2.74983 13.749 6.40182 13.749 10.9998C13.749 11.2486 13.7447 11.4945 13.7365 11.7373ZM15.471 13.3163C15.2644 15.4263 14.7758 17.289 14.0651 18.6609C16.7773 17.5741 18.7781 15.0889 19.1757 12.0971C18.2039 12.6024 16.9241 13.025 15.471 13.3163ZM19.1826 9.95596C18.7502 10.44 17.39 11.0147 15.5782 11.4163C15.5805 11.2781 15.5817 11.1393 15.5817 10.9998C15.5817 7.9496 15.0266 5.19506 14.0651 3.33881C16.7934 4.43206 18.8019 6.94043 19.1826 9.95596Z" fill="#3C5ABC"/>
</svg>
