<svg width="36" height="34" viewBox="0 0 36 34" fill="none" xmlns="http://www.w3.org/2000/svg">
<ellipse opacity="0.2" cx="18" cy="16.9048" rx="18" ry="16.8571" fill="#444344"/>
<path fill-rule="evenodd" clip-rule="evenodd" d="M22.5532 7.53969C21.1056 7.53967 20.1724 7.70119 19.1027 8.19155C18.7066 8.3731 18.335 8.59174 17.99 8.84681C17.6582 8.60604 17.3015 8.39744 16.9218 8.22158C15.8313 7.71646 14.8503 7.53967 13.4545 7.53967C9.71644 7.53967 7 10.4403 7 14.2075C7 17.0525 8.69383 19.8007 11.8488 22.4581C13.5049 23.853 15.6193 25.2334 17.1336 25.9678L18 26.3879L18.8664 25.9678C20.3807 25.2334 22.4951 23.853 24.1512 22.4581C27.3062 19.8007 29 17.0525 29 14.2075C29 10.4802 26.2579 7.55406 22.5532 7.53969ZM27 14.2075C27 16.4364 25.5862 18.7303 22.8137 21.0655C21.3022 22.3387 19.359 23.611 18 24.2785C16.641 23.611 14.6978 22.3387 13.1863 21.0655C10.4138 18.7303 9 16.4364 9 14.2075C9 11.424 10.8836 9.41269 13.4545 9.41269C14.5643 9.41269 15.2481 9.53592 16.0351 9.90046C16.5 10.1158 16.9109 10.4001 17.2665 10.7554L18.0023 11.4905L18.7315 10.7496C19.0951 10.3801 19.512 10.0893 19.9819 9.87385C20.7459 9.52366 21.387 9.41269 22.5491 9.4127C25.0882 9.42255 27 11.4627 27 14.2075Z" fill="white"/>
</svg>
