<svg width="127" height="82" viewBox="0 0 127 82" fill="none" xmlns="http://www.w3.org/2000/svg">
<path d="M49.9509 67.1291C48.5131 68.8389 46.784 70.1211 44.7634 70.976C42.7429 71.8697 40.5086 72.3166 38.0606 72.3166C35.6126 72.3166 33.4171 72.0057 31.4743 71.384C29.5314 70.8011 27.5886 69.7909 25.6457 68.3531C23.7029 66.9543 21.488 64.9531 19.0011 62.3497C15.5817 61.6503 12.5703 60.3291 9.96686 58.3863C7.36343 56.4046 5.32343 53.976 3.84686 51.1006C2.40914 48.2251 1.69029 45.0583 1.69029 41.6C1.69029 37.52 2.68114 33.8674 4.66286 30.6423C6.64457 27.3783 9.384 24.8331 12.8811 23.0069C16.3783 21.1806 20.3223 20.2674 24.7131 20.2674C29.104 20.2674 33.048 21.1806 36.5451 23.0069C40.0423 24.8331 42.7817 27.3783 44.7634 30.6423C46.7451 33.8674 47.736 37.52 47.736 41.6C47.736 46.0686 46.5509 50.032 44.1806 53.4903C41.8103 56.9097 38.6046 59.4354 34.5634 61.0674C35.1463 61.6891 35.7291 62.1166 36.312 62.3497C36.9337 62.6217 37.6137 62.7577 38.352 62.7577C40.3726 62.7577 42.2571 61.8834 44.0057 60.1349L49.9509 67.1291ZM24.7131 31.4C23.0034 31.4 21.4491 31.8274 20.0503 32.6823C18.6903 33.4983 17.6023 34.6834 16.7863 36.2377C15.9703 37.7531 15.5623 39.5406 15.5623 41.6C15.5623 43.6594 15.9703 45.4663 16.7863 47.0206C17.6023 48.536 18.6903 49.7211 20.0503 50.576C21.4491 51.392 23.0034 51.8 24.7131 51.8C26.4229 51.8 27.9577 51.392 29.3177 50.576C30.7166 49.7211 31.824 48.536 32.64 47.0206C33.456 45.4663 33.864 43.6594 33.864 41.6C33.864 39.5406 33.456 37.7531 32.64 36.2377C31.824 34.6834 30.7166 33.4983 29.3177 32.6823C27.9577 31.8274 26.4229 31.4 24.7131 31.4Z" fill="#3C5ABC"/>
<rect x="58" y="31" width="68.0282" height="28.4297" rx="5.07673" fill="#3C5ABC"/>
<path d="M76.1636 39.9091C77.4242 39.9091 78.5475 40.1838 79.5333 40.7333C80.5354 41.2828 81.3192 42.0586 81.8848 43.0606C82.4505 44.0626 82.7333 45.2182 82.7333 46.5273C82.7333 47.8364 82.4505 49 81.8848 50.0182C81.3192 51.0202 80.5354 51.796 79.5333 52.3455C78.5475 52.8949 77.4242 53.1697 76.1636 53.1697C74.4182 53.1697 73.0364 52.5879 72.0182 51.4242V57.703H68.9879V40.0545H71.8727V41.7515C72.3737 41.1374 72.9879 40.6768 73.7152 40.3697C74.4586 40.0626 75.2747 39.9091 76.1636 39.9091ZM75.8242 50.5758C76.9394 50.5758 77.8525 50.204 78.5636 49.4606C79.2909 48.7172 79.6545 47.7394 79.6545 46.5273C79.6545 45.3152 79.2909 44.3374 78.5636 43.5939C77.8525 42.8505 76.9394 42.4788 75.8242 42.4788C75.097 42.4788 74.4424 42.6485 73.8606 42.9879C73.2788 43.3111 72.8182 43.7798 72.4788 44.3939C72.1394 45.0081 71.9697 45.7192 71.9697 46.5273C71.9697 47.3354 72.1394 48.0465 72.4788 48.6606C72.8182 49.2747 73.2788 49.7515 73.8606 50.0909C74.4424 50.4141 75.097 50.5758 75.8242 50.5758ZM91.4254 53.1697C90.1163 53.1697 88.9365 52.8869 87.886 52.3212C86.8355 51.7556 86.0112 50.9717 85.4133 49.9697C84.8314 48.9515 84.5405 47.804 84.5405 46.5273C84.5405 45.2505 84.8314 44.1111 85.4133 43.1091C86.0112 42.1071 86.8355 41.3232 87.886 40.7576C88.9365 40.1919 90.1163 39.9091 91.4254 39.9091C92.7506 39.9091 93.9385 40.1919 94.989 40.7576C96.0395 41.3232 96.8557 42.1071 97.4375 43.1091C98.0355 44.1111 98.3345 45.2505 98.3345 46.5273C98.3345 47.804 98.0355 48.9515 97.4375 49.9697C96.8557 50.9717 96.0395 51.7556 94.989 52.3212C93.9385 52.8869 92.7506 53.1697 91.4254 53.1697ZM91.4254 50.5758C92.5405 50.5758 93.4617 50.204 94.189 49.4606C94.9163 48.7172 95.2799 47.7394 95.2799 46.5273C95.2799 45.3152 94.9163 44.3374 94.189 43.5939C93.4617 42.8505 92.5405 42.4788 91.4254 42.4788C90.3102 42.4788 89.389 42.8505 88.6617 43.5939C87.9506 44.3374 87.5951 45.3152 87.5951 46.5273C87.5951 47.7394 87.9506 48.7172 88.6617 49.4606C89.389 50.204 90.3102 50.5758 91.4254 50.5758ZM108.578 39.9091C110.21 39.9091 111.519 40.3859 112.505 41.3394C113.491 42.2929 113.984 43.7071 113.984 45.5818V53H110.953V45.9697C110.953 44.8384 110.687 43.9899 110.153 43.4242C109.62 42.8424 108.86 42.5515 107.875 42.5515C106.759 42.5515 105.879 42.8909 105.232 43.5697C104.586 44.2323 104.262 45.1939 104.262 46.4545V53H101.232V40.0545H104.117V41.7273C104.618 41.1293 105.248 40.6768 106.008 40.3697C106.768 40.0626 107.624 39.9091 108.578 39.9091Z" fill="white"/>
</svg>
