<svg width="18" height="18" viewBox="0 0 18 18" fill="none" xmlns="http://www.w3.org/2000/svg">
<path fill-rule="evenodd" clip-rule="evenodd" d="M12.7666 2.06162L15.9383 5.23344C16.3294 5.62449 16.3294 6.25852 15.9383 6.64958L7.97698 14.6113C7.85014 14.7382 7.69156 14.8286 7.51782 14.8732L3.25131 15.968C2.51382 16.1573 1.84332 15.4867 2.03255 14.7492L3.12728 10.4826C3.17186 10.3088 3.2623 10.1502 3.38914 10.0234L11.3505 2.06163C11.7415 1.67058 12.3755 1.67058 12.7666 2.06162ZM12.0585 3.05292L4.27753 10.8343L3.28055 14.72L7.16609 13.7229L14.9471 5.94152L12.0585 3.05292Z" fill="#BFBFBF"/>
<path fill-rule="evenodd" clip-rule="evenodd" d="M12.3415 5.65832C12.4979 5.81474 12.4979 6.06834 12.3415 6.22476L7.53532 11.0312C7.3789 11.1876 7.1253 11.1876 6.96888 11.0312C6.81246 10.8748 6.81246 10.6212 6.96887 10.4647L11.7751 5.65833C11.9315 5.50191 12.1851 5.50191 12.3415 5.65832Z" fill="#BFBFBF"/>
<path fill-rule="evenodd" clip-rule="evenodd" d="M5.36732 12.0675C5.52374 11.9111 5.77734 11.9111 5.93376 12.0675L7.53582 13.6697C7.69223 13.8261 7.69223 14.0797 7.53581 14.2361C7.37939 14.3925 7.12579 14.3925 6.96937 14.2361L5.36731 12.6339C5.21089 12.4775 5.2109 12.2239 5.36732 12.0675Z" fill="#BFBFBF"/>
<path fill-rule="evenodd" clip-rule="evenodd" d="M13.7697 0.175962C14.0044 -0.0586606 14.3848 -0.0586531 14.6194 0.175979L17.8235 3.38025C18.0581 3.61489 18.0581 3.99529 17.8235 4.22992C17.5889 4.46454 17.2085 4.46453 16.9738 4.2299L13.7697 1.02562C13.5351 0.790991 13.5351 0.410585 13.7697 0.175962Z" fill="#BFBFBF"/>
</svg>
