<svg width="18" height="18" viewBox="0 0 18 18" fill="none" xmlns="http://www.w3.org/2000/svg">
<path d="M11.5 6.50002C11.5 5.08335 10.4166 4.00002 8.99996 4.00002C7.58329 4.00002 6.49996 5.08335 6.49996 6.50002C6.49996 7.91669 7.58329 9.00002 8.99996 9.00002C10.4166 9.00002 11.5 7.91669 11.5 6.50002ZM8.16663 6.50002C8.16663 6.00002 8.49996 5.66669 8.99996 5.66669C9.49996 5.66669 9.83329 6.00002 9.83329 6.50002C9.83329 7.00002 9.49996 7.33335 8.99996 7.33335C8.49996 7.33335 8.16663 7.00002 8.16663 6.50002Z" fill="white"/>
<path d="M8.08329 14.25L8.99996 15.0834L9.91663 14.25C13.1666 11.3334 14.8333 8.83335 14.8333 6.50002C14.8333 3.16669 12.25 0.666687 8.99996 0.666687C5.74996 0.666687 3.16663 3.16669 3.16663 6.50002C3.16663 8.83335 4.83329 11.3334 8.08329 14.25ZM8.99996 2.33335C11.3333 2.33335 13.1666 4.08335 13.1666 6.50002C13.1666 8.16669 11.8333 10.3334 8.99996 12.8334C6.16663 10.3334 4.83329 8.16669 4.83329 6.50002C4.83329 4.08335 6.66663 2.33335 8.99996 2.33335Z" fill="white"/>
<path d="M14.25 11.3334C13.9166 11.8334 13.5 12.25 13.0833 12.75C14.6666 13.0834 15.6666 13.5834 15.6666 14C15.6666 14.6667 12.6666 15.6667 8.99996 15.6667C5.33329 15.6667 2.33329 14.6667 2.33329 14C2.33329 13.5834 3.33329 13.0834 4.91663 12.75C4.49996 12.25 4.08329 11.75 3.74996 11.3334C1.83329 11.9167 0.666626 12.8334 0.666626 14C0.666626 16.0834 4.41663 17.3334 8.99996 17.3334C13.5833 17.3334 17.3333 16.0834 17.3333 14C17.3333 12.8334 16.1666 11.9167 14.25 11.3334Z" fill="white"/>
</svg>
