<svg width="22" height="3" viewBox="0 0 22 3" fill="none" xmlns="http://www.w3.org/2000/svg">
<path d="M2.052 2.55527C1.716 2.55527 1.428 2.44127 1.188 2.21327C0.948 1.97327 0.828 1.67327 0.828 1.31327C0.828 0.965266 0.948 0.677265 1.188 0.449265C1.428 0.209265 1.716 0.0892654 2.052 0.0892654C2.388 0.0892654 2.67 0.203265 2.898 0.431266C3.126 0.659266 3.24 0.953266 3.24 1.31327C3.24 1.67327 3.12 1.97327 2.88 2.21327C2.652 2.44127 2.376 2.55527 2.052 2.55527ZM10.9641 2.55527C10.6281 2.55527 10.3401 2.44127 10.1001 2.21327C9.86011 1.97327 9.74011 1.67327 9.74011 1.31327C9.74011 0.965266 9.86011 0.677265 10.1001 0.449265C10.3401 0.209265 10.6281 0.0892654 10.9641 0.0892654C11.3001 0.0892654 11.5821 0.203265 11.8101 0.431266C12.0381 0.659266 12.1521 0.953266 12.1521 1.31327C12.1521 1.67327 12.0321 1.97327 11.7921 2.21327C11.5641 2.44127 11.2881 2.55527 10.9641 2.55527ZM19.8762 2.55527C19.5402 2.55527 19.2522 2.44127 19.0122 2.21327C18.7722 1.97327 18.6522 1.67327 18.6522 1.31327C18.6522 0.965266 18.7722 0.677265 19.0122 0.449265C19.2522 0.209265 19.5402 0.0892654 19.8762 0.0892654C20.2122 0.0892654 20.4942 0.203265 20.7222 0.431266C20.9502 0.659266 21.0642 0.953266 21.0642 1.31327C21.0642 1.67327 20.9442 1.97327 20.7042 2.21327C20.4762 2.44127 20.2002 2.55527 19.8762 2.55527Z" fill="#8D899B"/>
</svg>
