<svg width="24" height="24" viewBox="0 0 24 24" fill="none" xmlns="http://www.w3.org/2000/svg">
<path d="M15.4972 14.5029C15.2226 14.2283 14.7774 14.2283 14.5028 14.5029C14.2282 14.7774 14.2282 15.2226 14.5028 15.4972L15.4972 14.5029ZM20.5028 21.4972C20.7774 21.7718 21.2226 21.7718 21.4972 21.4972C21.7718 21.2226 21.7718 20.7775 21.4972 20.5029L20.5028 21.4972ZM9.99999 16.2969C6.52231 16.2969 3.7031 13.4777 3.7031 10H2.29684C2.29684 14.2544 5.74566 17.7032 9.99999 17.7032V16.2969ZM16.2969 10C16.2969 13.4777 13.4777 16.2969 9.99999 16.2969V17.7032C14.2543 17.7032 17.7031 14.2544 17.7031 10H16.2969ZM9.99999 3.70313C13.4777 3.70313 16.2969 6.52235 16.2969 10H17.7031C17.7031 5.7457 14.2543 2.29688 9.99999 2.29688V3.70313ZM9.99999 2.29688C5.74566 2.29688 2.29684 5.7457 2.29684 10H3.7031C3.7031 6.52235 6.52231 3.70313 9.99999 3.70313V2.29688ZM14.5028 15.4972L20.5028 21.4972L21.4972 20.5029L15.4972 14.5029L14.5028 15.4972Z" fill="#8D899B"/>
</svg>
