<svg width="118" height="21" viewBox="0 0 118 21" fill="none" xmlns="http://www.w3.org/2000/svg">
<path d="M9.86582 1.30703C10.0588 0.831028 10.7328 0.831028 10.9258 1.30703L12.9626 6.32984C13.0446 6.53221 13.2348 6.67018 13.4526 6.68545L18.869 7.06499C19.3824 7.10096 19.5908 7.74361 19.1962 8.07399L15.0403 11.5543C14.8724 11.6948 14.7995 11.9189 14.8526 12.1313L16.1641 17.3848C16.2886 17.8835 15.7432 18.2805 15.3069 18.0088L10.6981 15.1388C10.5131 15.0236 10.2786 15.0236 10.0935 15.1388L5.48478 18.0088C5.04845 18.2805 4.50306 17.8835 4.62756 17.3848L5.93908 12.1313C5.9921 11.9189 5.91922 11.6948 5.75137 11.5543L1.59541 8.07399C1.20088 7.74361 1.40929 7.10096 1.92262 7.06499L7.33903 6.68545C7.55687 6.67018 7.747 6.53221 7.82906 6.32984L9.86582 1.30703Z" fill="#D9AF19"/>
<path d="M34.1236 1.30703C34.3166 0.831028 34.9906 0.831028 35.1836 1.30703L37.2204 6.32984C37.3025 6.53221 37.4926 6.67018 37.7104 6.68545L43.1268 7.06499C43.6402 7.10096 43.8486 7.74361 43.454 8.07399L39.2981 11.5543C39.1302 11.6948 39.0574 11.9189 39.1104 12.1313L40.4219 17.3848C40.5464 17.8835 40.001 18.2805 39.5647 18.0088L34.956 15.1388C34.7709 15.0236 34.5364 15.0236 34.3513 15.1388L29.7426 18.0088C29.3063 18.2805 28.7609 17.8835 28.8854 17.3848L30.1969 12.1313C30.2499 11.9189 30.177 11.6948 30.0092 11.5543L25.8532 8.07399C25.4587 7.74361 25.6671 7.10096 26.1804 7.06499L31.5968 6.68545C31.8147 6.67018 32.0048 6.53221 32.0869 6.32984L34.1236 1.30703Z" fill="#D9AF19"/>
<path d="M58.3775 1.30703C58.5706 0.831028 59.2445 0.831028 59.4375 1.30703L61.4743 6.32984C61.5564 6.53221 61.7465 6.67018 61.9643 6.68545L67.3807 7.06499C67.8941 7.10096 68.1025 7.74361 67.708 8.07399L63.552 11.5543C63.3841 11.6948 63.3113 11.9189 63.3643 12.1313L64.6758 17.3848C64.8003 17.8835 64.2549 18.2805 63.8186 18.0088L59.2099 15.1388C59.0248 15.0236 58.7903 15.0236 58.6052 15.1388L53.9965 18.0088C53.5602 18.2805 53.0148 17.8835 53.1393 17.3848L54.4508 12.1313C54.5038 11.9189 54.4309 11.6948 54.2631 11.5543L50.1071 8.07399C49.7126 7.74361 49.921 7.10096 50.4343 7.06499L55.8508 6.68545C56.0686 6.67018 56.2587 6.53221 56.3408 6.32984L58.3775 1.30703Z" fill="#D9AF19"/>
<path d="M82.6393 1.30703C82.8323 0.831028 83.5062 0.831028 83.6993 1.30703L85.736 6.32984C85.8181 6.53221 86.0082 6.67018 86.226 6.68545L91.6425 7.06499C92.1558 7.10096 92.3642 7.74361 91.9697 8.07399L87.8137 11.5543C87.6459 11.6948 87.573 11.9189 87.626 12.1313L88.9375 17.3848C89.062 17.8835 88.5166 18.2805 88.0803 18.0088L83.4716 15.1388C83.2865 15.0236 83.052 15.0236 82.8669 15.1388L78.2582 18.0088C77.8219 18.2805 77.2765 17.8835 77.401 17.3848L78.7125 12.1313C78.7655 11.9189 78.6927 11.6948 78.5248 11.5543L74.3688 8.07399C73.9743 7.74361 74.1827 7.10096 74.6961 7.06499L80.1125 6.68545C80.3303 6.67018 80.5204 6.53221 80.6025 6.32984L82.6393 1.30703Z" fill="#D9AF19"/>
<path d="M107.158 1.41449C107.255 1.17649 107.592 1.17649 107.688 1.41449L109.725 6.4373C109.848 6.74085 110.133 6.94781 110.46 6.97071L115.876 7.35025C116.133 7.36824 116.237 7.68956 116.04 7.85475L111.884 11.335C111.632 11.5459 111.523 11.8819 111.602 12.2005L112.914 17.4541C112.976 17.7034 112.704 17.9019 112.485 17.7661L107.877 14.8961C107.599 14.7232 107.247 14.7232 106.97 14.8961L102.361 17.7661C102.143 17.9019 101.87 17.7034 101.932 17.4541L103.244 12.2005C103.323 11.8819 103.214 11.5459 102.962 11.335L98.8063 7.85475C98.6091 7.68956 98.7133 7.36824 98.97 7.35025L104.386 6.97071C104.713 6.94781 104.998 6.74085 105.121 6.4373L107.158 1.41449Z" fill="white" stroke="#BEA72C" stroke-width="0.571921"/>
</svg>
