<svg width="17" height="16" viewBox="0 0 17 16" fill="none" xmlns="http://www.w3.org/2000/svg">
<g clip-path="url(#clip0_187_3777)">
<path d="M0 13.2105C0 12.7173 0 12.2243 0 11.7311C0.355795 11.7318 0.71159 11.7312 1.06739 11.7342C1.11845 11.7346 1.14135 11.7194 1.16026 11.6716C2.41634 8.49795 3.67385 5.32487 4.93135 2.15179C4.95 2.10471 4.96955 2.05801 4.99322 2C6.07488 3.90015 7.15037 5.78949 8.23242 7.6904C9.31923 5.78884 10.399 3.89976 11.4841 2.00103C11.4998 2.03756 11.5111 2.06239 11.5211 2.08773C12.5988 4.81639 13.6764 7.54518 14.7539 10.2738C14.9386 10.7415 15.1232 11.2094 15.3079 11.6771C15.3196 11.7068 15.3271 11.7342 15.3719 11.7339C15.7363 11.7314 16.1006 11.7316 16.465 11.731C16.465 12.2242 16.465 12.7172 16.465 13.2104C16.4351 13.2087 16.4054 13.2057 16.3756 13.2057C14.4977 13.2055 12.6199 13.2055 10.742 13.2055C10.7127 13.2055 10.6832 13.2055 10.6499 13.2055C10.6499 12.7112 10.6499 12.2257 10.6499 11.7337C10.9382 11.7337 11.2223 11.7337 11.5159 11.7337C11.2337 10.9219 10.9544 10.1188 10.67 9.30087C9.85369 10.6424 9.0455 11.971 8.23242 13.3075C7.41806 11.9689 6.61038 10.6413 5.79498 9.301C5.51058 10.119 5.23132 10.922 4.9491 11.7338C5.24264 11.7338 5.52679 11.7338 5.81505 11.7338C5.81505 12.2258 5.81505 12.7113 5.81505 13.2056C5.78173 13.2056 5.75228 13.2056 5.72295 13.2056C3.84506 13.2056 1.96729 13.2056 0.089399 13.2059C0.0596851 13.2059 0.0298425 13.2088 0 13.2105Z" fill="#3C5ABC"/>
</g>
<defs>
<clipPath id="clip0_187_3777">
<rect width="16.4648" height="11.3075" fill="white" transform="translate(0 2)"/>
</clipPath>
</defs>
</svg>
