<svg width="24" height="24" viewBox="0 0 24 24" fill="none" xmlns="http://www.w3.org/2000/svg">
<path d="M6.80212 8C6.80212 5.23858 9.0407 3 11.8021 3C14.5635 3 16.8021 5.23858 16.8021 8C16.8021 10.7614 14.5635 13 11.8021 13C9.0407 13 6.80212 10.7614 6.80212 8ZM11.8021 11C13.459 11 14.8021 9.65685 14.8021 8C14.8021 6.34315 13.459 5 11.8021 5C10.1453 5 8.80212 6.34315 8.80212 8C8.80212 9.65685 10.1453 11 11.8021 11Z" fill="#3C5ABC"/>
<path d="M6.14527 16.3431C4.64498 17.8434 3.80212 19.8783 3.80212 22H5.80212C5.80212 20.4087 6.43427 18.8826 7.55948 17.7574C8.6847 16.6321 10.2108 16 11.8021 16C13.3934 16 14.9195 16.6321 16.0448 17.7574C17.17 18.8826 17.8021 20.4087 17.8021 22H19.8021C19.8021 19.8783 18.9593 17.8434 17.459 16.3431C15.9587 14.8429 13.9239 14 11.8021 14C9.68039 14 7.64556 14.8429 6.14527 16.3431Z" fill="#3C5ABC"/>
</svg>
