<svg width="32" height="33" viewBox="0 0 32 33" fill="none" xmlns="http://www.w3.org/2000/svg">
<circle cx="16" cy="16.6387" r="16" fill="#3C5ABC"/>
<path d="M24.331 20.7938C24.3105 20.7516 24.2915 20.7163 24.2738 20.6881C23.9814 20.1809 23.4233 19.558 22.5991 18.8198L22.5814 18.803L22.5727 18.7943L22.564 18.7862H22.5553C22.1811 18.4422 21.9443 18.2112 21.8451 18.0926C21.6639 17.8676 21.6229 17.6393 21.7224 17.4083C21.7929 17.2336 22.0558 16.8645 22.5117 16.3007C22.7513 16.0022 22.9412 15.7628 23.0817 15.5819C24.0929 14.2858 24.5311 13.4576 24.3969 13.0967L24.3441 13.0122C24.309 12.9613 24.2182 12.9148 24.0722 12.8726C23.9261 12.8303 23.739 12.8237 23.5112 12.8516L20.9858 12.8689C20.9274 12.8632 20.869 12.8647 20.8103 12.8728C20.7519 12.8815 20.7139 12.8899 20.6963 12.8983C20.6786 12.9069 20.6642 12.9139 20.6524 12.9193L20.6173 12.9447C20.5881 12.9615 20.5561 12.9912 20.521 13.0337C20.4859 13.0759 20.4564 13.1251 20.4333 13.1817C20.1586 13.8636 19.8459 14.4976 19.4951 15.0838C19.2788 15.4332 19.0799 15.7364 18.899 15.9926C18.7178 16.2493 18.5659 16.438 18.4431 16.5588C18.3203 16.6799 18.2091 16.7775 18.1099 16.8504C18.0105 16.924 17.9344 16.9546 17.8821 16.9435C17.8293 16.9324 17.7796 16.921 17.733 16.9094C17.6512 16.8588 17.5851 16.7899 17.5356 16.7024C17.4859 16.6152 17.4523 16.5052 17.4347 16.3728C17.4172 16.2404 17.4067 16.1262 17.4042 16.0304C17.4011 15.9345 17.4026 15.7994 17.4085 15.6247C17.4144 15.45 17.4172 15.3319 17.4172 15.2696C17.4172 15.0557 17.4216 14.8232 17.4306 14.5722C17.4393 14.3214 17.4467 14.1228 17.4523 13.9762C17.4582 13.83 17.4611 13.6748 17.4611 13.5113C17.4611 13.3482 17.4508 13.2197 17.4303 13.1266C17.4098 13.0337 17.379 12.9437 17.3383 12.856C17.2973 12.7688 17.2373 12.7011 17.1584 12.6534C17.0795 12.6055 16.9816 12.5675 16.8647 12.5393C16.5546 12.4716 16.1602 12.4353 15.681 12.4294C14.5936 12.4185 13.895 12.4862 13.5852 12.6324C13.4624 12.6947 13.3512 12.779 13.252 12.8862C13.1467 13.0102 13.1321 13.0782 13.2082 13.0888C13.559 13.1397 13.8074 13.261 13.9534 13.4525L14.0062 13.5538C14.047 13.6274 14.088 13.7568 14.129 13.9426C14.17 14.1287 14.1961 14.3342 14.2079 14.5598C14.2371 14.9712 14.2371 15.3233 14.2079 15.6165C14.1787 15.9098 14.151 16.1378 14.1246 16.3009C14.0982 16.4645 14.0588 16.5966 14.0062 16.6982C13.9534 16.8 13.9186 16.862 13.9009 16.8845C13.8832 16.907 13.8689 16.921 13.8571 16.9267C13.781 16.9546 13.7023 16.969 13.6203 16.969C13.5383 16.969 13.4391 16.9294 13.322 16.8504C13.2051 16.7718 13.0836 16.6631 12.9581 16.525C12.8322 16.3871 12.6908 16.1939 12.5327 15.9459C12.3748 15.6981 12.211 15.405 12.0416 15.0668L11.9015 14.8215C11.8138 14.6638 11.6939 14.4341 11.5419 14.1326C11.3899 13.8312 11.2554 13.5397 11.1385 13.2575C11.0916 13.1394 11.0217 13.0492 10.9281 12.987L10.8843 12.9615C10.8551 12.9391 10.8082 12.9151 10.7439 12.8899C10.6793 12.8644 10.6124 12.8462 10.5422 12.8348L8.13961 12.8516C7.8941 12.8516 7.72752 12.9055 7.63987 13.0124L7.60477 13.0631C7.58708 13.0915 7.57837 13.1367 7.57837 13.1985C7.57837 13.2607 7.59605 13.3366 7.63116 13.4265C7.982 14.2213 8.36334 14.9877 8.77542 15.7257C9.18777 16.4642 9.54553 17.0589 9.84972 17.5096C10.1537 17.9607 10.4635 18.3859 10.7792 18.7862C11.095 19.1864 11.3038 19.4426 11.4061 19.5553C11.5083 19.6682 11.5885 19.7527 11.6472 19.809L11.8663 20.0121C12.0065 20.1473 12.2128 20.3093 12.4845 20.4981C12.7564 20.6871 13.0572 20.8729 13.3876 21.0557C13.7177 21.2391 14.1023 21.388 14.5406 21.5039C14.979 21.6195 15.4057 21.666 15.8206 21.6433H16.8291C17.0338 21.6265 17.1886 21.5647 17.2937 21.4572L17.3288 21.415C17.3521 21.3814 17.3742 21.329 17.3947 21.2588C17.4149 21.1884 17.4254 21.1108 17.4254 21.0263C17.4193 20.784 17.4385 20.5653 17.4823 20.3711C17.5262 20.1767 17.5759 20.0301 17.6315 19.9313C17.6871 19.833 17.7496 19.7497 17.8201 19.682C17.8903 19.6143 17.9398 19.5738 17.9692 19.5595C17.9985 19.5456 18.022 19.5358 18.0395 19.5298C18.1796 19.4849 18.3447 19.5286 18.5348 19.6608C18.7247 19.7935 18.9031 19.9565 19.0697 20.1512C19.2363 20.3457 19.4364 20.5638 19.6704 20.8064C19.9041 21.0488 20.1086 21.2289 20.2842 21.3473L20.4597 21.4491C20.5766 21.5165 20.7285 21.5785 20.9156 21.6351C21.1027 21.6912 21.2665 21.7055 21.4066 21.6774L23.6514 21.6433C23.8735 21.6433 24.046 21.6082 24.1688 21.5375C24.2915 21.4676 24.3646 21.3895 24.3879 21.305C24.4112 21.2205 24.4127 21.1252 24.3922 21.0177C24.3717 20.9107 24.3512 20.8361 24.331 20.7938Z" fill="white"/>
</svg>
